<svg xmlns="http://www.w3.org/2000/svg" viewBox="0 0 900 560" fill="none">
  <rect width="900" height="560" rx="16" fill="#0D1B2A"/>
  <rect x="20" y="20" width="200" height="520" rx="12" fill="#1a2d42"/>
  <rect x="240" y="20" width="640" height="80" rx="12" fill="#1a2d42"/>
  <rect x="240" y="120" width="300" height="200" rx="12" fill="#1a2d42"/>
  <rect x="560" y="120" width="320" height="200" rx="12" fill="#1a2d42"/>
  <rect x="240" y="340" width="640" height="200" rx="12" fill="#1a2d42"/>
  <rect x="260" y="180" width="260" height="120" rx="8" fill="#0A4DA3" opacity="0.4"/>
  <rect x="260" y="220" width="180" height="80" rx="4" fill="#00C853" opacity="0.7"/>
  <text x="400" y="65" text-anchor="middle" font-family="Arial" font-size="14" fill="#90CAF9">iTank Dashboard</text>
  <text x="130" y="60" text-anchor="middle" font-family="Arial" font-size="11" fill="#64B5F6">NAV</text>
  <text x="390" y="160" text-anchor="middle" font-family="Arial" font-size="12" fill="#81C784">Water Level 92%</text>
  <polyline points="580,280 620,240 660,250 700,200 740,210 780,170 820,180 860,150" stroke="#1E88E5" stroke-width="3" fill="none"/>
  <circle cx="700" cy="200" r="5" fill="#00C853"/>
</svg>
